<svg xmlns="http://www.w3.org/2000/svg" xmlns:xlink="http://www.w3.org/1999/xlink" width="151" zoomAndPan="magnify" viewBox="0 0 113.25 32.999998" height="44" preserveAspectRatio="xMidYMid meet" version="1.0"><defs><g/><clipPath id="571decde61"><path d="M 0 0.109375 L 35 0.109375 L 35 32.890625 L 0 32.890625 Z M 0 0.109375 " clip-rule="nonzero"/></clipPath><clipPath id="05b7a2cc66"><path d="M 17.257812 0.828125 C 19.167969 0.132812 21.445312 0.625 22.882812 2.074219 C 26.355469 5.539062 29.816406 9.019531 33.289062 12.484375 C 34.277344 13.46875 34.894531 14.816406 34.960938 16.214844 C 35.019531 17.820312 34.277344 19.398438 33.109375 20.480469 C 29.65625 23.917969 26.242188 27.378906 22.785156 30.808594 C 21.0625 32.472656 18.101562 32.867188 16.171875 31.367188 C 16.164062 30.109375 16.449219 28.839844 17.042969 27.726562 C 17.621094 26.636719 18.707031 25.792969 19.957031 25.671875 C 20.925781 25.539062 21.84375 25.980469 22.804688 25.953125 C 23.484375 25.980469 24.257812 25.804688 24.648438 25.203125 C 24.945312 24.617188 24.742188 23.933594 24.925781 23.320312 C 25.167969 23.046875 25.484375 22.84375 25.769531 22.621094 C 25.691406 22.382812 25.59375 22.152344 25.519531 21.921875 C 26.1875 21.472656 25.851562 20.683594 25.886719 20.027344 C 26.328125 19.652344 27.042969 19.601562 27.335938 19.0625 C 27.324219 18.351562 26.714844 17.855469 26.375 17.28125 C 25.859375 16.472656 25.164062 15.527344 25.585938 14.53125 C 26.125 12.859375 25.941406 10.996094 25.121094 9.449219 C 24.3125 7.78125 22.792969 6.542969 21.132812 5.789062 C 19.417969 5.050781 17.558594 4.691406 15.695312 4.601562 C 14.582031 4.546875 13.488281 4.820312 12.398438 5.015625 C 13.105469 4.203125 13.890625 3.476562 14.644531 2.703125 C 15.390625 1.914062 16.210938 1.15625 17.257812 0.828125 Z M 2.53125 7.292969 C 1.617188 8.109375 1.714844 9.660156 2.640625 10.429688 C 4.085938 11.832031 5.457031 13.308594 6.933594 14.675781 C 6.949219 13.558594 7.003906 12.433594 7.109375 11.324219 C 7.640625 8.78125 9.347656 6.515625 11.675781 5.351562 C 11.035156 4.671875 10.386719 3.996094 9.714844 3.34375 C 9.277344 2.917969 8.710938 2.527344 8.070312 2.582031 C 7.339844 2.5625 6.738281 3.042969 6.257812 3.539062 C 5.027344 4.804688 3.765625 6.035156 2.53125 7.292969 Z M 12.589844 9.171875 C 12.238281 9.535156 11.75 9.933594 11.90625 10.503906 C 12.253906 11.15625 12.878906 11.601562 13.375 12.140625 C 13.710938 12.449219 14.109375 12.949219 14.625 12.71875 C 15.25 12.328125 15.71875 11.742188 16.253906 11.238281 C 16.5625 10.902344 17.015625 10.519531 16.832031 10.007812 C 16.378906 9.324219 15.738281 8.792969 15.167969 8.214844 C 14.859375 7.949219 14.421875 7.53125 14.011719 7.859375 C 13.464844 8.226562 13.046875 8.730469 12.589844 9.171875 Z M 0.78125 15.332031 C 0.53125 15.613281 0.175781 15.863281 0.132812 16.269531 C 0 17.113281 0.914062 17.546875 1.375 18.113281 C 1.894531 18.546875 2.375 19.457031 3.179688 19.167969 C 3.902344 18.730469 4.417969 18.03125 5.03125 17.457031 C 5.351562 17.101562 5.867188 16.617188 5.574219 16.09375 C 5.027344 15.339844 4.308594 14.71875 3.644531 14.0625 C 3.3125 13.699219 2.730469 13.496094 2.3125 13.84375 C 1.75 14.277344 1.296875 14.84375 0.78125 15.332031 Z M 10.085938 15.039062 C 8.832031 16.277344 7.605469 17.539062 6.34375 18.777344 C 5.910156 19.195312 5.472656 19.699219 5.464844 20.34375 C 5.359375 21.042969 5.644531 21.738281 6.15625 22.222656 C 7.1875 23.261719 8.246094 24.28125 9.261719 25.335938 C 9.703125 25.777344 10.121094 26.261719 10.628906 26.628906 C 11.453125 27.238281 12.6875 27.105469 13.390625 26.378906 C 14.789062 24.988281 16.179688 23.585938 17.570312 22.199219 C 18.421875 21.398438 18.5 19.910156 17.632812 19.085938 C 16.28125 17.707031 14.917969 16.339844 13.550781 14.984375 C 12.984375 14.402344 12.164062 13.957031 11.339844 14.207031 C 10.859375 14.339844 10.449219 14.683594 10.085938 15.039062 Z M 10.085938 15.039062 " clip-rule="nonzero"/></clipPath><linearGradient x1="24.317865" gradientTransform="matrix(0.0697016, 0, 0, 0.0698638, 0.118493, 0.515156)" y1="-29.46718" x2="488.453544" gradientUnits="userSpaceOnUse" y2="474.381133" id="cac4f79f13"><stop stop-opacity="1" stop-color="rgb(0%, 8.999634%, 62.69989%)" offset="0"/><stop stop-opacity="1" stop-color="rgb(0%, 8.999634%, 62.69989%)" offset="0.25"/><stop stop-opacity="1" stop-color="rgb(0%, 9.028625%, 62.705994%)" offset="0.3125"/><stop stop-opacity="1" stop-color="rgb(0%, 9.368896%, 62.783813%)" offset="0.316406"/><stop stop-opacity="1" stop-color="rgb(0%, 9.680176%, 62.854004%)" offset="0.320313"/><stop stop-opacity="1" stop-color="rgb(0%, 9.989929%, 62.924194%)" offset="0.324219"/><stop stop-opacity="1" stop-color="rgb(0%, 10.299683%, 62.995911%)" offset="0.328125"/><stop stop-opacity="1" stop-color="rgb(0%, 10.609436%, 63.066101%)" offset="0.332031"/><stop stop-opacity="1" stop-color="rgb(0%, 10.920715%, 63.137817%)" offset="0.335938"/><stop stop-opacity="1" stop-color="rgb(0%, 11.230469%, 63.208008%)" offset="0.339844"/><stop stop-opacity="1" stop-color="rgb(0%, 11.540222%, 63.278198%)" offset="0.34375"/><stop stop-opacity="1" stop-color="rgb(0%, 11.849976%, 63.348389%)" offset="0.347656"/><stop stop-opacity="1" stop-color="rgb(0%, 12.161255%, 63.420105%)" offset="0.351563"/><stop stop-opacity="1" stop-color="rgb(0%, 12.471008%, 63.490295%)" offset="0.355469"/><stop stop-opacity="1" stop-color="rgb(0%, 12.780762%, 63.562012%)" offset="0.359375"/><stop stop-opacity="1" stop-color="rgb(0%, 13.090515%, 63.632202%)" offset="0.363281"/><stop stop-opacity="1" stop-color="rgb(0%, 13.400269%, 63.702393%)" offset="0.367188"/><stop stop-opacity="1" stop-color="rgb(0%, 13.710022%, 63.772583%)" offset="0.371094"/><stop stop-opacity="1" stop-color="rgb(0%, 14.021301%, 63.844299%)" offset="0.375"/><stop stop-opacity="1" stop-color="rgb(0%, 14.331055%, 63.91449%)" offset="0.378906"/><stop stop-opacity="1" stop-color="rgb(0%, 14.640808%, 63.986206%)" offset="0.382812"/><stop stop-opacity="1" stop-color="rgb(0%, 14.950562%, 64.056396%)" offset="0.386719"/><stop stop-opacity="1" stop-color="rgb(0%, 15.261841%, 64.128113%)" offset="0.390625"/><stop stop-opacity="1" stop-color="rgb(0%, 15.571594%, 64.198303%)" offset="0.394531"/><stop stop-opacity="1" stop-color="rgb(0%, 15.881348%, 64.268494%)" offset="0.398438"/><stop stop-opacity="1" stop-color="rgb(0%, 16.191101%, 64.338684%)" offset="0.402344"/><stop stop-opacity="1" stop-color="rgb(0%, 16.50238%, 64.4104%)" offset="0.40625"/><stop stop-opacity="1" stop-color="rgb(0%, 16.812134%, 64.480591%)" offset="0.410156"/><stop stop-opacity="1" stop-color="rgb(0%, 17.121887%, 64.552307%)" offset="0.414062"/><stop stop-opacity="1" stop-color="rgb(0%, 17.431641%, 64.622498%)" offset="0.417969"/><stop stop-opacity="1" stop-color="rgb(0%, 17.74292%, 64.692688%)" offset="0.421875"/><stop stop-opacity="1" stop-color="rgb(0%, 18.052673%, 64.762878%)" offset="0.425781"/><stop stop-opacity="1" stop-color="rgb(0%, 18.362427%, 64.834595%)" offset="0.429688"/><stop stop-opacity="1" stop-color="rgb(0%, 18.67218%, 64.904785%)" offset="0.433594"/><stop stop-opacity="1" stop-color="rgb(0%, 18.983459%, 64.976501%)" offset="0.4375"/><stop stop-opacity="1" stop-color="rgb(0%, 19.293213%, 65.046692%)" offset="0.441406"/><stop stop-opacity="1" stop-color="rgb(0%, 19.602966%, 65.118408%)" offset="0.445312"/><stop stop-opacity="1" stop-color="rgb(0%, 19.91272%, 65.188599%)" offset="0.449219"/><stop stop-opacity="1" stop-color="rgb(0%, 20.223999%, 65.258789%)" offset="0.453125"/><stop stop-opacity="1" stop-color="rgb(0%, 20.533752%, 65.328979%)" offset="0.457031"/><stop stop-opacity="1" stop-color="rgb(0%, 20.843506%, 65.400696%)" offset="0.460938"/><stop stop-opacity="1" stop-color="rgb(0%, 21.153259%, 65.470886%)" offset="0.464844"/><stop stop-opacity="1" stop-color="rgb(0%, 21.463013%, 65.542603%)" offset="0.46875"/><stop stop-opacity="1" stop-color="rgb(0%, 21.772766%, 65.612793%)" offset="0.472656"/><stop stop-opacity="1" stop-color="rgb(0%, 22.084045%, 65.682983%)" offset="0.476563"/><stop stop-opacity="1" stop-color="rgb(0%, 22.393799%, 65.753174%)" offset="0.480469"/><stop stop-opacity="1" stop-color="rgb(0%, 22.703552%, 65.82489%)" offset="0.484375"/><stop stop-opacity="1" stop-color="rgb(0%, 23.013306%, 65.895081%)" offset="0.488281"/><stop stop-opacity="1" stop-color="rgb(0%, 23.324585%, 65.966797%)" offset="0.492188"/><stop stop-opacity="1" stop-color="rgb(0%, 23.634338%, 66.036987%)" offset="0.496094"/><stop stop-opacity="1" stop-color="rgb(0%, 23.944092%, 66.107178%)" offset="0.5"/><stop stop-opacity="1" stop-color="rgb(0%, 24.253845%, 66.177368%)" offset="0.503906"/><stop stop-opacity="1" stop-color="rgb(0%, 24.565125%, 66.249084%)" offset="0.507813"/><stop stop-opacity="1" stop-color="rgb(0%, 24.874878%, 66.319275%)" offset="0.511719"/><stop stop-opacity="1" stop-color="rgb(0%, 25.184631%, 66.390991%)" offset="0.515625"/><stop stop-opacity="1" stop-color="rgb(0%, 25.494385%, 66.461182%)" offset="0.519531"/><stop stop-opacity="1" stop-color="rgb(0%, 25.805664%, 66.532898%)" offset="0.523438"/><stop stop-opacity="1" stop-color="rgb(0%, 26.115417%, 66.603088%)" offset="0.527344"/><stop stop-opacity="1" stop-color="rgb(0%, 26.425171%, 66.673279%)" offset="0.53125"/><stop stop-opacity="1" stop-color="rgb(0%, 26.734924%, 66.743469%)" offset="0.535156"/><stop stop-opacity="1" stop-color="rgb(0%, 27.046204%, 66.815186%)" offset="0.539063"/><stop stop-opacity="1" stop-color="rgb(0%, 27.355957%, 66.885376%)" offset="0.542969"/><stop stop-opacity="1" stop-color="rgb(0%, 27.66571%, 66.957092%)" offset="0.546875"/><stop stop-opacity="1" stop-color="rgb(0%, 27.975464%, 67.027283%)" offset="0.550781"/><stop stop-opacity="1" stop-color="rgb(0%, 28.286743%, 67.097473%)" offset="0.554688"/><stop stop-opacity="1" stop-color="rgb(0%, 28.596497%, 67.167664%)" offset="0.558594"/><stop stop-opacity="1" stop-color="rgb(0%, 28.90625%, 67.23938%)" offset="0.5625"/><stop stop-opacity="1" stop-color="rgb(0%, 29.216003%, 67.30957%)" offset="0.566406"/><stop stop-opacity="1" stop-color="rgb(0%, 29.525757%, 67.381287%)" offset="0.570312"/><stop stop-opacity="1" stop-color="rgb(0%, 29.83551%, 67.451477%)" offset="0.574219"/><stop stop-opacity="1" stop-color="rgb(0%, 30.14679%, 67.521667%)" offset="0.578125"/><stop stop-opacity="1" stop-color="rgb(0%, 30.456543%, 67.591858%)" offset="0.582031"/><stop stop-opacity="1" stop-color="rgb(0%, 30.766296%, 67.663574%)" offset="0.585938"/><stop stop-opacity="1" stop-color="rgb(0%, 31.07605%, 67.733765%)" offset="0.589844"/><stop stop-opacity="1" stop-color="rgb(0%, 31.387329%, 67.805481%)" offset="0.59375"/><stop stop-opacity="1" stop-color="rgb(0%, 31.697083%, 67.875671%)" offset="0.597656"/><stop stop-opacity="1" stop-color="rgb(0%, 32.006836%, 67.947388%)" offset="0.601562"/><stop stop-opacity="1" stop-color="rgb(0%, 32.316589%, 68.017578%)" offset="0.605469"/><stop stop-opacity="1" stop-color="rgb(0%, 32.627869%, 68.087769%)" offset="0.609375"/><stop stop-opacity="1" stop-color="rgb(0%, 32.937622%, 68.157959%)" offset="0.613281"/><stop stop-opacity="1" stop-color="rgb(0%, 33.247375%, 68.229675%)" offset="0.617188"/><stop stop-opacity="1" stop-color="rgb(0%, 33.557129%, 68.299866%)" offset="0.621094"/><stop stop-opacity="1" stop-color="rgb(0%, 33.868408%, 68.371582%)" offset="0.625"/><stop stop-opacity="1" stop-color="rgb(0%, 34.178162%, 68.441772%)" offset="0.628906"/><stop stop-opacity="1" stop-color="rgb(0%, 34.487915%, 68.511963%)" offset="0.632812"/><stop stop-opacity="1" stop-color="rgb(0%, 34.797668%, 68.582153%)" offset="0.636719"/><stop stop-opacity="1" stop-color="rgb(0%, 35.108948%, 68.65387%)" offset="0.640625"/><stop stop-opacity="1" stop-color="rgb(0%, 35.418701%, 68.72406%)" offset="0.644531"/><stop stop-opacity="1" stop-color="rgb(0%, 35.728455%, 68.795776%)" offset="0.648437"/><stop stop-opacity="1" stop-color="rgb(0%, 36.038208%, 68.865967%)" offset="0.652344"/><stop stop-opacity="1" stop-color="rgb(0%, 36.347961%, 68.936157%)" offset="0.65625"/><stop stop-opacity="1" stop-color="rgb(0%, 36.657715%, 69.006348%)" offset="0.660156"/><stop stop-opacity="1" stop-color="rgb(0%, 36.968994%, 69.078064%)" offset="0.664062"/><stop stop-opacity="1" stop-color="rgb(0%, 37.278748%, 69.148254%)" offset="0.667969"/><stop stop-opacity="1" stop-color="rgb(0%, 37.588501%, 69.219971%)" offset="0.671875"/><stop stop-opacity="1" stop-color="rgb(0%, 37.898254%, 69.290161%)" offset="0.675781"/><stop stop-opacity="1" stop-color="rgb(0%, 38.209534%, 69.361877%)" offset="0.679687"/><stop stop-opacity="1" stop-color="rgb(0%, 38.519287%, 69.432068%)" offset="0.683594"/><stop stop-opacity="1" stop-color="rgb(0%, 38.829041%, 69.502258%)" offset="0.6875"/><stop stop-opacity="1" stop-color="rgb(0%, 39.138794%, 69.572449%)" offset="0.691406"/><stop stop-opacity="1" stop-color="rgb(0%, 39.450073%, 69.644165%)" offset="0.695312"/><stop stop-opacity="1" stop-color="rgb(0%, 39.759827%, 69.714355%)" offset="0.699219"/><stop stop-opacity="1" stop-color="rgb(0%, 40.06958%, 69.786072%)" offset="0.703125"/><stop stop-opacity="1" stop-color="rgb(0%, 40.379333%, 69.856262%)" offset="0.707031"/><stop stop-opacity="1" stop-color="rgb(0%, 40.690613%, 69.926453%)" offset="0.710937"/><stop stop-opacity="1" stop-color="rgb(0%, 41.000366%, 69.996643%)" offset="0.714844"/><stop stop-opacity="1" stop-color="rgb(0%, 41.31012%, 70.068359%)" offset="0.71875"/><stop stop-opacity="1" stop-color="rgb(0%, 41.619873%, 70.13855%)" offset="0.722656"/><stop stop-opacity="1" stop-color="rgb(0%, 41.931152%, 70.210266%)" offset="0.726562"/><stop stop-opacity="1" stop-color="rgb(0%, 42.240906%, 70.280457%)" offset="0.730469"/><stop stop-opacity="1" stop-color="rgb(0%, 42.550659%, 70.350647%)" offset="0.734375"/><stop stop-opacity="1" stop-color="rgb(0%, 42.860413%, 70.420837%)" offset="0.738281"/><stop stop-opacity="1" stop-color="rgb(0%, 43.171692%, 70.492554%)" offset="0.742187"/><stop stop-opacity="1" stop-color="rgb(0%, 43.481445%, 70.562744%)" offset="0.746094"/><stop stop-opacity="1" stop-color="rgb(0%, 43.791199%, 70.63446%)" offset="0.75"/><stop stop-opacity="1" stop-color="rgb(0%, 44.100952%, 70.704651%)" offset="0.753906"/><stop stop-opacity="1" stop-color="rgb(0%, 44.410706%, 70.776367%)" offset="0.757812"/><stop stop-opacity="1" stop-color="rgb(0%, 44.720459%, 70.846558%)" offset="0.761719"/><stop stop-opacity="1" stop-color="rgb(0%, 45.031738%, 70.916748%)" offset="0.765625"/><stop stop-opacity="1" stop-color="rgb(0%, 45.341492%, 70.986938%)" offset="0.769531"/><stop stop-opacity="1" stop-color="rgb(0%, 45.651245%, 71.058655%)" offset="0.773438"/><stop stop-opacity="1" stop-color="rgb(0%, 45.960999%, 71.128845%)" offset="0.777344"/><stop stop-opacity="1" stop-color="rgb(0%, 46.272278%, 71.200562%)" offset="0.78125"/><stop stop-opacity="1" stop-color="rgb(0%, 46.582031%, 71.270752%)" offset="0.785156"/><stop stop-opacity="1" stop-color="rgb(0%, 46.891785%, 71.340942%)" offset="0.789062"/><stop stop-opacity="1" stop-color="rgb(0%, 47.201538%, 71.411133%)" offset="0.792969"/><stop stop-opacity="1" stop-color="rgb(0%, 47.512817%, 71.482849%)" offset="0.796875"/><stop stop-opacity="1" stop-color="rgb(0%, 47.822571%, 71.55304%)" offset="0.800781"/><stop stop-opacity="1" stop-color="rgb(0%, 48.132324%, 71.624756%)" offset="0.804688"/><stop stop-opacity="1" stop-color="rgb(0%, 48.442078%, 71.694946%)" offset="0.808594"/><stop stop-opacity="1" stop-color="rgb(0%, 48.753357%, 71.765137%)" offset="0.8125"/><stop stop-opacity="1" stop-color="rgb(0%, 49.06311%, 71.835327%)" offset="0.816406"/><stop stop-opacity="1" stop-color="rgb(0%, 49.372864%, 71.907043%)" offset="0.820312"/><stop stop-opacity="1" stop-color="rgb(0%, 49.682617%, 71.977234%)" offset="0.824219"/><stop stop-opacity="1" stop-color="rgb(0%, 49.993896%, 72.04895%)" offset="0.828125"/><stop stop-opacity="1" stop-color="rgb(0%, 50.30365%, 72.119141%)" offset="0.832031"/><stop stop-opacity="1" stop-color="rgb(0%, 50.613403%, 72.190857%)" offset="0.835938"/><stop stop-opacity="1" stop-color="rgb(0%, 50.923157%, 72.261047%)" offset="0.839844"/><stop stop-opacity="1" stop-color="rgb(0%, 51.234436%, 72.331238%)" offset="0.84375"/><stop stop-opacity="1" stop-color="rgb(0%, 51.544189%, 72.401428%)" offset="0.847656"/><stop stop-opacity="1" stop-color="rgb(0%, 51.853943%, 72.473145%)" offset="0.851562"/><stop stop-opacity="1" stop-color="rgb(0%, 52.163696%, 72.543335%)" offset="0.855469"/><stop stop-opacity="1" stop-color="rgb(0%, 52.47345%, 72.615051%)" offset="0.859375"/><stop stop-opacity="1" stop-color="rgb(0%, 52.783203%, 72.685242%)" offset="0.863281"/><stop stop-opacity="1" stop-color="rgb(0%, 53.094482%, 72.755432%)" offset="0.867188"/><stop stop-opacity="1" stop-color="rgb(0%, 53.404236%, 72.825623%)" offset="0.871094"/><stop stop-opacity="1" stop-color="rgb(0%, 53.713989%, 72.897339%)" offset="0.875"/><stop stop-opacity="1" stop-color="rgb(0%, 54.023743%, 72.967529%)" offset="0.878906"/><stop stop-opacity="1" stop-color="rgb(0%, 54.335022%, 73.039246%)" offset="0.882812"/><stop stop-opacity="1" stop-color="rgb(0%, 54.644775%, 73.109436%)" offset="0.886719"/><stop stop-opacity="1" stop-color="rgb(0%, 54.954529%, 73.179626%)" offset="0.890625"/><stop stop-opacity="1" stop-color="rgb(0%, 55.264282%, 73.249817%)" offset="0.894531"/><stop stop-opacity="1" stop-color="rgb(0%, 55.575562%, 73.321533%)" offset="0.898438"/><stop stop-opacity="1" stop-color="rgb(0%, 55.885315%, 73.391724%)" offset="0.902344"/><stop stop-opacity="1" stop-color="rgb(0%, 56.195068%, 73.46344%)" offset="0.90625"/><stop stop-opacity="1" stop-color="rgb(0%, 56.504822%, 73.53363%)" offset="0.910156"/><stop stop-opacity="1" stop-color="rgb(0%, 56.816101%, 73.605347%)" offset="0.914063"/><stop stop-opacity="1" stop-color="rgb(0%, 57.125854%, 73.675537%)" offset="0.917969"/><stop stop-opacity="1" stop-color="rgb(0%, 57.435608%, 73.745728%)" offset="0.921875"/><stop stop-opacity="1" stop-color="rgb(0%, 57.745361%, 73.815918%)" offset="0.925781"/><stop stop-opacity="1" stop-color="rgb(0%, 58.056641%, 73.887634%)" offset="0.929688"/><stop stop-opacity="1" stop-color="rgb(0%, 58.366394%, 73.957825%)" offset="0.933594"/><stop stop-opacity="1" stop-color="rgb(0%, 58.676147%, 74.029541%)" offset="0.9375"/><stop stop-opacity="1" stop-color="rgb(0%, 58.985901%, 74.099731%)" offset="0.941406"/><stop stop-opacity="1" stop-color="rgb(0%, 59.295654%, 74.169922%)" offset="0.945313"/><stop stop-opacity="1" stop-color="rgb(0%, 59.605408%, 74.240112%)" offset="0.949219"/><stop stop-opacity="1" stop-color="rgb(0%, 59.916687%, 74.311829%)" offset="0.953125"/><stop stop-opacity="1" stop-color="rgb(0%, 60.22644%, 74.382019%)" offset="0.957031"/><stop stop-opacity="1" stop-color="rgb(0%, 60.536194%, 74.453735%)" offset="0.960938"/><stop stop-opacity="1" stop-color="rgb(0%, 60.845947%, 74.523926%)" offset="0.964844"/><stop stop-opacity="1" stop-color="rgb(0%, 61.157227%, 74.594116%)" offset="0.96875"/><stop stop-opacity="1" stop-color="rgb(0%, 61.46698%, 74.664307%)" offset="0.972656"/><stop stop-opacity="1" stop-color="rgb(0%, 61.776733%, 74.736023%)" offset="0.976563"/><stop stop-opacity="1" stop-color="rgb(0%, 62.086487%, 74.806213%)" offset="0.980469"/><stop stop-opacity="1" stop-color="rgb(0%, 62.397766%, 74.87793%)" offset="0.984375"/><stop stop-opacity="1" stop-color="rgb(0%, 62.70752%, 74.94812%)" offset="0.988281"/><stop stop-opacity="1" stop-color="rgb(0%, 63.017273%, 75.019836%)" offset="0.992188"/><stop stop-opacity="1" stop-color="rgb(0%, 63.327026%, 75.090027%)" offset="0.996094"/><stop stop-opacity="1" stop-color="rgb(0%, 63.638306%, 75.160217%)" offset="1"/></linearGradient></defs><g clip-path="url(#571decde61)"><g clip-path="url(#05b7a2cc66)"><path fill="url(#cac4f79f13)" d="M 0 0.132812 L 0 32.867188 L 35.019531 32.867188 L 35.019531 0.132812 Z M 0 0.132812 " fill-rule="nonzero"/></g></g><g fill="#000000" fill-opacity="1"><g transform="translate(39.629514, 18.443273)"><g><path d="M 5.292969 -1.390625 L 2.558594 -1.390625 C 2.394531 -1.390625 2.261719 -1.414062 2.152344 -1.445312 C 2.050781 -1.484375 1.980469 -1.539062 1.921875 -1.617188 C 1.859375 -1.703125 1.8125 -1.820312 1.789062 -1.964844 C 1.78125 -2.003906 1.78125 -2.058594 1.773438 -2.097656 C 1.773438 -2.097656 1.78125 -2.660156 1.789062 -2.660156 L 5.261719 -2.660156 C 5.324219 -2.660156 5.480469 -2.691406 5.480469 -2.929688 L 5.480469 -3.542969 C 5.480469 -3.785156 5.324219 -3.808594 5.261719 -3.808594 L 1.25 -3.800781 C 1.027344 -3.785156 0.832031 -3.667969 0.722656 -3.472656 C 0.683594 -3.414062 0.652344 -3.351562 0.636719 -3.28125 L 0.621094 -2.300781 L 0.621094 -2.261719 C 0.628906 -1.898438 0.667969 -1.585938 0.722656 -1.328125 C 0.792969 -1.019531 0.910156 -0.761719 1.058594 -0.566406 C 1.210938 -0.367188 1.414062 -0.226562 1.664062 -0.140625 C 1.90625 -0.046875 2.191406 -0.0078125 2.535156 -0.0078125 L 5.292969 -0.0078125 C 5.363281 -0.0078125 5.519531 -0.03125 5.519531 -0.273438 L 5.519531 -1.128906 C 5.519531 -1.367188 5.363281 -1.390625 5.292969 -1.390625 Z M 5.300781 -6.421875 L 0.832031 -6.421875 C 0.769531 -6.421875 0.621094 -6.390625 0.621094 -6.140625 L 0.621094 -5.535156 C 0.621094 -5.292969 0.769531 -5.269531 0.832031 -5.269531 L 5.300781 -5.261719 C 5.363281 -5.261719 5.519531 -5.292969 5.519531 -5.535156 L 5.519531 -6.148438 C 5.519531 -6.390625 5.363281 -6.421875 5.300781 -6.421875 Z M 5.300781 -6.421875 "/></g></g></g><g fill="#000000" fill-opacity="1"><g transform="translate(46.158971, 18.443273)"><g><path d="M 4.289062 -3.320312 L 6.28125 -6.0625 C 6.328125 -6.117188 6.34375 -6.1875 6.335938 -6.257812 C 6.320312 -6.351562 6.257812 -6.40625 6.15625 -6.40625 L 5.300781 -6.40625 C 5.230469 -6.40625 5.175781 -6.390625 5.136719 -6.367188 C 5.097656 -6.335938 5.058594 -6.296875 5.027344 -6.25 L 3.566406 -4.257812 L 2.191406 -6.25 C 2.160156 -6.296875 2.121094 -6.335938 2.082031 -6.367188 C 2.042969 -6.390625 1.980469 -6.40625 1.921875 -6.40625 L 1.019531 -6.40625 C 0.917969 -6.40625 0.855469 -6.351562 0.847656 -6.257812 C 0.839844 -6.1875 0.855469 -6.117188 0.894531 -6.0625 L 2.820312 -3.367188 L 0.683594 -0.34375 C 0.636719 -0.289062 0.621094 -0.226562 0.628906 -0.148438 C 0.644531 -0.0546875 0.707031 0 0.800781 0 L 1.65625 0 C 1.726562 0 1.78125 -0.0078125 1.820312 -0.0390625 C 1.859375 -0.0625 1.898438 -0.101562 1.925781 -0.15625 L 3.503906 -2.386719 L 5.074219 -0.164062 C 5.105469 -0.101562 5.144531 -0.0625 5.183594 -0.03125 C 5.230469 -0.0078125 5.285156 0 5.347656 0 L 6.25 0 C 6.351562 0 6.414062 -0.0546875 6.421875 -0.148438 C 6.4375 -0.226562 6.414062 -0.289062 6.375 -0.34375 Z M 4.289062 -3.320312 "/></g></g></g><g fill="#000000" fill-opacity="1"><g transform="translate(53.597885, 18.443273)"><g><path d="M 4.429688 -6.40625 L 0.839844 -6.40625 C 0.777344 -6.40625 0.621094 -6.382812 0.621094 -6.132812 L 0.621094 -5.519531 C 0.621094 -5.277344 0.777344 -5.253906 0.839844 -5.253906 L 4.230469 -5.253906 C 4.421875 -5.253906 4.5625 -5.199219 4.640625 -5.082031 C 4.726562 -4.96875 4.765625 -4.78125 4.765625 -4.523438 C 4.765625 -4.265625 4.726562 -4.082031 4.640625 -3.964844 C 4.5625 -3.847656 4.421875 -3.792969 4.230469 -3.792969 L 0.839844 -3.792969 C 0.777344 -3.792969 0.621094 -3.769531 0.621094 -3.527344 L 0.621094 -0.265625 C 0.621094 -0.0234375 0.777344 0.0078125 0.839844 0.0078125 L 1.554688 0.0078125 C 1.617188 0.0078125 1.773438 -0.0234375 1.773438 -0.265625 L 1.773438 -2.644531 L 4.429688 -2.652344 C 4.960938 -2.652344 5.339844 -2.8125 5.574219 -3.140625 C 5.804688 -3.46875 5.914062 -3.933594 5.914062 -4.546875 L 5.914062 -4.5 C 5.914062 -5.121094 5.804688 -5.589844 5.574219 -5.90625 C 5.339844 -6.242188 4.960938 -6.40625 4.429688 -6.40625 Z M 4.429688 -6.40625 "/></g></g></g><g fill="#000000" fill-opacity="1"><g transform="translate(60.52377, 18.443273)"><g><path d="M 5.292969 -1.390625 L 2.558594 -1.390625 C 2.394531 -1.390625 2.261719 -1.414062 2.152344 -1.445312 C 2.050781 -1.484375 1.980469 -1.539062 1.921875 -1.617188 C 1.859375 -1.703125 1.8125 -1.820312 1.789062 -1.964844 C 1.78125 -2.003906 1.78125 -2.058594 1.773438 -2.097656 C 1.773438 -2.097656 1.78125 -2.660156 1.789062 -2.660156 L 5.261719 -2.660156 C 5.324219 -2.660156 5.480469 -2.691406 5.480469 -2.929688 L 5.480469 -3.542969 C 5.480469 -3.785156 5.324219 -3.808594 5.261719 -3.808594 L 1.25 -3.800781 C 1.027344 -3.785156 0.832031 -3.667969 0.722656 -3.472656 C 0.683594 -3.414062 0.652344 -3.351562 0.636719 -3.28125 L 0.621094 -2.300781 L 0.621094 -2.261719 C 0.628906 -1.898438 0.667969 -1.585938 0.722656 -1.328125 C 0.792969 -1.019531 0.910156 -0.761719 1.058594 -0.566406 C 1.210938 -0.367188 1.414062 -0.226562 1.664062 -0.140625 C 1.90625 -0.046875 2.191406 -0.0078125 2.535156 -0.0078125 L 5.292969 -0.0078125 C 5.363281 -0.0078125 5.519531 -0.03125 5.519531 -0.273438 L 5.519531 -1.128906 C 5.519531 -1.367188 5.363281 -1.390625 5.292969 -1.390625 Z M 5.300781 -6.421875 L 0.832031 -6.421875 C 0.769531 -6.421875 0.621094 -6.390625 0.621094 -6.140625 L 0.621094 -5.535156 C 0.621094 -5.292969 0.769531 -5.269531 0.832031 -5.269531 L 5.300781 -5.261719 C 5.363281 -5.261719 5.519531 -5.292969 5.519531 -5.535156 L 5.519531 -6.148438 C 5.519531 -6.390625 5.363281 -6.421875 5.300781 -6.421875 Z M 5.300781 -6.421875 "/></g></g></g><g fill="#000000" fill-opacity="1"><g transform="translate(67.053227, 18.443273)"><g><path d="M 5.921875 -4.546875 C 5.921875 -4.539062 5.921875 -4.53125 5.921875 -4.523438 C 5.921875 -4.515625 5.921875 -4.507812 5.921875 -4.5 Z M 6.070312 -0.335938 L 4.710938 -2.667969 C 5.089844 -2.710938 5.386719 -2.875 5.582031 -3.140625 C 5.796875 -3.460938 5.914062 -3.917969 5.921875 -4.523438 C 5.914062 -5.128906 5.796875 -5.589844 5.582031 -5.90625 C 5.347656 -6.242188 4.960938 -6.40625 4.429688 -6.40625 L 0.847656 -6.40625 C 0.777344 -6.40625 0.621094 -6.382812 0.621094 -6.132812 L 0.621094 -5.519531 C 0.621094 -5.277344 0.777344 -5.253906 0.847656 -5.253906 L 4.230469 -5.253906 C 4.429688 -5.253906 4.5625 -5.199219 4.640625 -5.082031 C 4.726562 -4.96875 4.765625 -4.78125 4.765625 -4.523438 C 4.765625 -4.265625 4.726562 -4.082031 4.640625 -3.964844 C 4.5625 -3.847656 4.429688 -3.792969 4.230469 -3.792969 L 0.847656 -3.792969 C 0.777344 -3.792969 0.621094 -3.769531 0.621094 -3.527344 L 0.621094 -0.265625 C 0.621094 -0.0234375 0.777344 0.0078125 0.847656 0.0078125 L 1.554688 0.0078125 C 1.625 0.0078125 1.773438 -0.0234375 1.773438 -0.265625 L 1.773438 -2.644531 L 3.414062 -2.644531 L 4.820312 -0.148438 C 4.851562 -0.101562 4.875 -0.0625 4.90625 -0.0390625 C 4.945312 -0.0078125 5 0.0078125 5.066406 0.0078125 L 5.921875 0.0078125 C 6.015625 0.0078125 6.085938 -0.0546875 6.101562 -0.148438 C 6.109375 -0.226562 6.101562 -0.289062 6.070312 -0.335938 Z M 6.070312 -0.335938 "/></g></g></g><g fill="#000000" fill-opacity="1"><g transform="translate(74.173441, 18.443273)"><g><path d="M 5.992188 -6.40625 L 0.847656 -6.40625 C 0.777344 -6.40625 0.621094 -6.382812 0.621094 -6.140625 L 0.621094 -5.535156 C 0.621094 -5.277344 0.777344 -5.253906 0.847656 -5.253906 L 2.84375 -5.253906 L 2.84375 -0.265625 C 2.84375 -0.0234375 3 0 3.0625 0 L 3.777344 0 C 3.847656 0 3.996094 -0.0234375 3.996094 -0.265625 L 3.996094 -5.253906 L 5.992188 -5.253906 C 6.0625 -5.253906 6.21875 -5.277344 6.21875 -5.535156 L 6.21875 -6.140625 C 6.21875 -6.382812 6.0625 -6.40625 5.992188 -6.40625 Z M 5.992188 -6.40625 "/></g></g></g><g fill="#000000" fill-opacity="1"><g transform="translate(81.402478, 18.443273)"><g/></g></g><g fill="#000000" fill-opacity="1"><g transform="translate(85.786541, 18.443273)"><g><path d="M 5.371094 -6.40625 L 2.542969 -6.40625 C 2.199219 -6.40625 1.90625 -6.359375 1.664062 -6.273438 C 1.414062 -6.179688 1.210938 -6.03125 1.066406 -5.835938 C 0.910156 -5.644531 0.792969 -5.386719 0.722656 -5.074219 C 0.652344 -4.773438 0.621094 -4.398438 0.621094 -3.972656 L 0.621094 -2.433594 C 0.621094 -1.996094 0.652344 -1.625 0.722656 -1.3125 C 0.792969 -1.011719 0.910156 -0.753906 1.066406 -0.550781 C 1.21875 -0.359375 1.421875 -0.210938 1.664062 -0.125 C 1.90625 -0.0390625 2.199219 0.0078125 2.542969 0.0078125 L 5.371094 0.0078125 C 5.433594 0.0078125 5.589844 -0.0234375 5.589844 -0.265625 L 5.589844 -0.878906 C 5.589844 -1.121094 5.433594 -1.152344 5.371094 -1.152344 L 2.582031 -1.152344 C 2.417969 -1.152344 2.277344 -1.164062 2.175781 -1.203125 C 2.074219 -1.234375 2.003906 -1.289062 1.941406 -1.375 C 1.882812 -1.453125 1.84375 -1.570312 1.8125 -1.71875 C 1.789062 -1.875 1.773438 -2.066406 1.773438 -2.300781 L 1.773438 -4.113281 C 1.773438 -4.34375 1.789062 -4.539062 1.8125 -4.6875 C 1.84375 -4.835938 1.882812 -4.945312 1.941406 -5.027344 C 2.003906 -5.113281 2.074219 -5.167969 2.175781 -5.199219 C 2.277344 -5.238281 2.417969 -5.253906 2.582031 -5.253906 L 5.371094 -5.253906 C 5.433594 -5.253906 5.589844 -5.285156 5.589844 -5.535156 L 5.589844 -6.132812 C 5.589844 -6.375 5.433594 -6.40625 5.371094 -6.40625 Z M 5.371094 -6.40625 "/></g></g></g><g fill="#000000" fill-opacity="1"><g transform="translate(92.385947, 18.443273)"><g><path d="M 5.105469 -1.152344 L 2.582031 -1.152344 C 2.417969 -1.152344 2.285156 -1.164062 2.175781 -1.203125 C 2.082031 -1.234375 2.003906 -1.289062 1.949219 -1.375 C 1.890625 -1.460938 1.84375 -1.578125 1.820312 -1.71875 C 1.789062 -1.875 1.78125 -2.066406 1.78125 -2.300781 L 1.78125 -6.132812 C 1.78125 -6.382812 1.625 -6.40625 1.5625 -6.40625 L 0.847656 -6.40625 C 0.777344 -6.40625 0.621094 -6.382812 0.621094 -6.132812 L 0.621094 -2.433594 C 0.621094 -1.996094 0.660156 -1.625 0.730469 -1.320312 C 0.800781 -1.011719 0.910156 -0.753906 1.066406 -0.558594 C 1.21875 -0.359375 1.421875 -0.210938 1.671875 -0.125 C 1.90625 -0.0390625 2.199219 0.0078125 2.542969 0.0078125 L 5.105469 0.0078125 C 5.175781 0.0078125 5.324219 -0.0234375 5.324219 -0.265625 L 5.324219 -0.878906 C 5.324219 -1.121094 5.175781 -1.152344 5.105469 -1.152344 Z M 5.105469 -1.152344 "/></g></g></g><g fill="#000000" fill-opacity="1"><g transform="translate(98.721074, 18.443273)"><g><path d="M 5.992188 -6.40625 L 5.277344 -6.40625 C 5.207031 -6.40625 5.058594 -6.382812 5.058594 -6.140625 L 5.058594 -2.308594 C 5.058594 -2.074219 5.042969 -1.875 5.019531 -1.726562 C 5 -1.578125 4.953125 -1.460938 4.898438 -1.375 C 4.835938 -1.296875 4.765625 -1.242188 4.664062 -1.203125 C 4.5625 -1.171875 4.421875 -1.152344 4.257812 -1.152344 L 2.582031 -1.152344 C 2.417969 -1.152344 2.277344 -1.171875 2.175781 -1.203125 C 2.074219 -1.242188 2.003906 -1.296875 1.941406 -1.375 C 1.890625 -1.460938 1.84375 -1.578125 1.8125 -1.726562 C 1.789062 -1.875 1.773438 -2.074219 1.773438 -2.308594 L 1.773438 -6.140625 C 1.773438 -6.382812 1.625 -6.40625 1.554688 -6.40625 L 0.847656 -6.40625 C 0.777344 -6.40625 0.621094 -6.382812 0.621094 -6.140625 L 0.621094 -2.433594 C 0.621094 -1.996094 0.652344 -1.625 0.722656 -1.320312 C 0.792969 -1.011719 0.910156 -0.753906 1.066406 -0.558594 C 1.210938 -0.359375 1.421875 -0.21875 1.664062 -0.125 C 1.90625 -0.0390625 2.199219 0 2.542969 0 L 4.289062 0 C 4.632812 0 4.929688 -0.0390625 5.167969 -0.125 C 5.417969 -0.21875 5.621094 -0.359375 5.777344 -0.558594 C 5.929688 -0.753906 6.039062 -1.011719 6.109375 -1.320312 C 6.179688 -1.625 6.210938 -1.996094 6.210938 -2.433594 L 6.210938 -6.140625 C 6.210938 -6.382812 6.0625 -6.40625 5.992188 -6.40625 Z M 5.992188 -6.40625 "/></g></g></g><g fill="#000000" fill-opacity="1"><g transform="translate(105.942333, 18.443273)"><g><path d="M 6 -4.421875 L 6 -4.859375 C 6 -5.363281 5.898438 -5.753906 5.699219 -6.007812 C 5.496094 -6.273438 5.152344 -6.40625 4.679688 -6.40625 L 1.242188 -6.40625 L 1.242188 -6.398438 C 1.019531 -6.382812 0.824219 -6.257812 0.707031 -6.070312 C 0.675781 -6.007812 0.644531 -5.9375 0.628906 -5.875 L 0.621094 -0.566406 C 0.636719 -0.480469 0.667969 -0.394531 0.707031 -0.328125 C 0.832031 -0.117188 1.058594 0.0078125 1.296875 0.0078125 L 4.796875 0.0078125 C 5.027344 0.0078125 5.222656 -0.03125 5.378906 -0.109375 C 5.542969 -0.1875 5.675781 -0.296875 5.769531 -0.441406 C 5.867188 -0.582031 5.929688 -0.753906 5.976562 -0.957031 C 6.015625 -1.152344 6.039062 -1.375 6.039062 -1.617188 L 6.039062 -2.136719 C 6.039062 -2.652344 5.890625 -3.039062 5.613281 -3.296875 C 5.875 -3.558594 6 -3.941406 6 -4.421875 Z M 1.765625 -1.1875 L 1.765625 -5.207031 C 1.765625 -5.238281 1.773438 -5.253906 1.78125 -5.253906 L 4.476562 -5.253906 C 4.625 -5.253906 4.734375 -5.214844 4.796875 -5.144531 C 4.859375 -5.074219 4.890625 -4.953125 4.890625 -4.789062 L 4.890625 -4.25 C 4.890625 -4.105469 4.859375 -3.988281 4.789062 -3.910156 C 4.726562 -3.839844 4.59375 -3.800781 4.390625 -3.800781 L 2.882812 -3.800781 C 2.742188 -3.800781 2.628906 -3.683594 2.628906 -3.542969 L 2.628906 -2.90625 C 2.628906 -2.757812 2.742188 -2.652344 2.882812 -2.652344 L 4.390625 -2.652344 C 4.59375 -2.652344 4.726562 -2.605469 4.796875 -2.527344 C 4.859375 -2.449219 4.898438 -2.324219 4.898438 -2.152344 L 4.898438 -1.625 C 4.898438 -1.445312 4.867188 -1.320312 4.804688 -1.25 C 4.742188 -1.179688 4.632812 -1.152344 4.476562 -1.152344 L 1.773438 -1.152344 C 1.773438 -1.152344 1.765625 -1.15625 1.765625 -1.1875 Z M 1.765625 -1.1875 "/></g></g></g></svg>